<svg width="17" height="17" viewBox="0 0 17 17" fill="none" xmlns="http://www.w3.org/2000/svg">
<g id="button/uil:calender">
<path id="Vector" d="M13.1666 3.50765H11.8333V2.84098C11.8333 2.66417 11.7631 2.4946 11.6381 2.36958C11.513 2.24455 11.3435 2.17432 11.1666 2.17432C10.9898 2.17432 10.8203 2.24455 10.6952 2.36958C10.5702 2.4946 10.5 2.66417 10.5 2.84098V3.50765H6.49998V2.84098C6.49998 2.66417 6.42974 2.4946 6.30472 2.36958C6.17969 2.24455 6.01012 2.17432 5.83331 2.17432C5.6565 2.17432 5.48693 2.24455 5.36191 2.36958C5.23688 2.4946 5.16665 2.66417 5.16665 2.84098V3.50765H3.83331C3.30288 3.50765 2.79417 3.71836 2.4191 4.09344C2.04403 4.46851 1.83331 4.97722 1.83331 5.50765V13.5077C1.83331 14.0381 2.04403 14.5468 2.4191 14.9219C2.79417 15.2969 3.30288 15.5077 3.83331 15.5077H13.1666C13.6971 15.5077 14.2058 15.2969 14.5809 14.9219C14.9559 14.5468 15.1666 14.0381 15.1666 13.5077V5.50765C15.1666 4.97722 14.9559 4.46851 14.5809 4.09344C14.2058 3.71836 13.6971 3.50765 13.1666 3.50765ZM13.8333 13.5077C13.8333 13.6845 13.7631 13.854 13.6381 13.9791C13.513 14.1041 13.3435 14.1743 13.1666 14.1743H3.83331C3.6565 14.1743 3.48693 14.1041 3.36191 13.9791C3.23688 13.854 3.16665 13.6845 3.16665 13.5077V8.84098H13.8333V13.5077ZM13.8333 7.50765H3.16665V5.50765C3.16665 5.33084 3.23688 5.16127 3.36191 5.03625C3.48693 4.91122 3.6565 4.84098 3.83331 4.84098H5.16665V5.50765C5.16665 5.68446 5.23688 5.85403 5.36191 5.97905C5.48693 6.10408 5.6565 6.17432 5.83331 6.17432C6.01012 6.17432 6.17969 6.10408 6.30472 5.97905C6.42974 5.85403 6.49998 5.68446 6.49998 5.50765V4.84098H10.5V5.50765C10.5 5.68446 10.5702 5.85403 10.6952 5.97905C10.8203 6.10408 10.9898 6.17432 11.1666 6.17432C11.3435 6.17432 11.513 6.10408 11.6381 5.97905C11.7631 5.85403 11.8333 5.68446 11.8333 5.50765V4.84098H13.1666C13.3435 4.84098 13.513 4.91122 13.6381 5.03625C13.7631 5.16127 13.8333 5.33084 13.8333 5.50765V7.50765Z" fill="white"/>
</g>
</svg>
