<svg width="16" height="17" viewBox="0 0 16 17" fill="none" xmlns="http://www.w3.org/2000/svg">
<g id="Group">
<path id="Vector" fill-rule="evenodd" clip-rule="evenodd" d="M8.47133 11.3121C8.34631 11.437 8.17677 11.5072 7.99999 11.5072C7.82322 11.5072 7.65368 11.437 7.52866 11.3121L3.75733 7.54072C3.69365 7.47923 3.64287 7.40566 3.60793 7.32433C3.57299 7.24299 3.5546 7.15551 3.55383 7.06699C3.55306 6.97847 3.56993 6.89069 3.60345 6.80875C3.63697 6.72682 3.68647 6.65239 3.74906 6.58979C3.81166 6.5272 3.88609 6.4777 3.96803 6.44418C4.04996 6.41065 4.13774 6.39379 4.22626 6.39456C4.31478 6.39533 4.40226 6.41372 4.4836 6.44866C4.56493 6.4836 4.6385 6.53438 4.69999 6.59806L7.99999 9.89806L11.3 6.59806C11.4257 6.47662 11.5941 6.40942 11.7689 6.41094C11.9437 6.41246 12.1109 6.48257 12.2345 6.60618C12.3581 6.72978 12.4283 6.89699 12.4298 7.07179C12.4313 7.24659 12.3641 7.41499 12.2427 7.54072L8.47133 11.3121Z" fill="white"/>
</g>
</svg>
