<svg width="40" height="40" viewBox="0 0 40 40" fill="none" xmlns="http://www.w3.org/2000/svg">
<g clip-path="url(#clip0_39_6185)">
<rect width="40" height="40" rx="20" fill="#010101"/>
<path fill-rule="evenodd" clip-rule="evenodd" d="M21.1783 26.1783C20.8658 26.4908 20.4419 26.6663 20 26.6663C19.5581 26.6663 19.1342 26.4908 18.8217 26.1783L9.39334 16.75C9.23415 16.5963 9.10718 16.4123 9.01983 16.209C8.93248 16.0057 8.88651 15.787 8.88458 15.5657C8.88266 15.3444 8.92483 15.1249 9.00863 14.9201C9.09243 14.7152 9.21619 14.5292 9.37268 14.3727C9.52917 14.2162 9.71525 14.0924 9.92008 14.0086C10.1249 13.9248 10.3444 13.8827 10.5657 13.8846C10.787 13.8865 11.0057 13.9325 11.209 14.0198C11.4123 14.1072 11.5963 14.2341 11.75 14.3933L20 22.6433L28.25 14.3933C28.5643 14.0897 28.9853 13.9217 29.4223 13.9255C29.8593 13.9293 30.2774 14.1046 30.5864 14.4136C30.8954 14.7226 31.0707 15.1407 31.0745 15.5777C31.0783 16.0147 30.9103 16.4357 30.6067 16.75L21.1783 26.1783Z" fill="white"/>
</g>
<defs>
<clipPath id="clip0_39_6185">
<rect width="40" height="40" rx="20" fill="white"/>
</clipPath>
</defs>
</svg>
